<?xml version="1.0"?>
<svg xmlns="http://www.w3.org/2000/svg" xmlns:xlink="http://www.w3.org/1999/xlink" xmlns:svgjs="http://svgjs.com/svgjs" version="1.1" width="512" height="512" x="0" y="0" viewBox="0 0 500.039 500.039" style="enable-background:new 0 0 512 512" xml:space="preserve"><g><g xmlns="http://www.w3.org/2000/svg"><g><path d="m203.467 163.228c11.108 11.108 11.073 29.097.02 40.149l-51.102 50.857-51.298-50.827c-11.186-11.206-11.021-29.158 0-40.179 11.098-11.1 29.104-11.088 40.17 0l11.011 11.019 11.02-11.019c11.088-11.09 29.081-11.098 40.179 0z" fill="#ffffff" data-original="#000000" style=""/><path d="m366.695 158.836v33.336h41.18v-33.336zm0 0v33.336h41.18v-33.336zm-366.695-92.164v366.695h500.039v-366.695zm337.281 62.75h100.008v92.164h-100.008zm-.98 149.031h70.594v29.414h-70.594zm-101.969 92.164h-172.562v-29.414h172.563v29.414zm-10.069-146.413-71.839 71.496-72.094-71.447c-22.699-22.717-22.605-59.273-.039-81.82 19.993-20.009 50.206-21.824 71.986-7.882 21.867-14.013 52.055-12.048 71.986 7.882 22.587 22.568 22.602 59.169 0 81.771zm79.682 147.394h-29.414v-243.157h29.414zm134.325-.981h-101.969v-29.414h101.969zm-71.575-178.445h41.18v-33.336h-41.18zm0-33.336v33.336h41.18v-33.336zm0 0v33.336h41.18v-33.336z" fill="#ffffff" data-original="#000000" style=""/></g></g></g></svg>
